<?xml version="1.0" encoding="utf-8"?>
<!-- Generator: Adobe Illustrator 16.0.3, SVG Export Plug-In . SVG Version: 6.00 Build 0)  -->
<!DOCTYPE svg PUBLIC "-//W3C//DTD SVG 1.1//EN" "http://www.w3.org/Graphics/SVG/1.1/DTD/svg11.dtd">
<svg version="1.1" xmlns="http://www.w3.org/2000/svg" xmlns:xlink="http://www.w3.org/1999/xlink" x="0px" y="0px" width="170px"
	 height="60px" viewBox="0 0 170 60" enable-background="new 0 0 170 60" xml:space="preserve">
<g id="Funka_logotyp">
	<g>
		<g>
			<g>
				<path fill="#FFCB00" d="M149.979,21.049c0,3.192-2.584,5.771-5.773,5.771l0,0c-3.187,0-5.765-2.579-5.765-5.771V5.77
					c0-3.188,2.578-5.77,5.765-5.77l0,0c3.189,0,5.773,2.582,5.773,5.77V21.049z"/>
				<path fill="#F08019" d="M151.478,30.524c-3.018,0.979-6.289-0.672-7.272-3.703l0,0c-0.993-3.029,0.657-6.284,3.697-7.271
					l14.527-4.744c3.023-0.988,6.291,0.672,7.283,3.696l0,0c0.99,3.04-0.664,6.296-3.7,7.282L151.478,30.524z"/>
				<path fill="#E765A2" d="M142.953,34.892c-1.892-2.577-1.308-6.196,1.253-8.071l0,0c2.592-1.875,6.185-1.319,8.076,1.26
					l8.997,12.339c1.87,2.576,1.313,6.194-1.264,8.07l0,0c-2.57,1.876-6.188,1.311-8.054-1.258L142.953,34.892z"/>
				<path fill="#00A0D4" d="M136.164,28.118c1.861-2.584,5.472-3.162,8.042-1.297l0,0c2.598,1.868,3.173,5.473,1.305,8.061
					l-8.943,12.385c-1.861,2.577-5.477,3.164-8.05,1.296l0,0c-2.594-1.857-3.161-5.464-1.29-8.043L136.164,28.118z"/>
				<path fill="#69C888" d="M140.49,19.563c3.021,0.982,4.684,4.221,3.716,7.258l0,0c-0.971,3.037-4.198,4.718-7.238,3.739
					l-14.55-4.655c-3.039-0.988-4.719-4.23-3.746-7.269l0,0c0.965-3.035,4.237-4.706,7.249-3.731L140.49,19.563z"/>
			</g>
			<g>
				<path fill="#951C3F" d="M152.282,28.081c-1.892-2.579-5.484-3.135-8.076-1.26c0.983,3.031,4.255,4.682,7.272,3.703l2.088-0.68
					L152.282,28.081z"/>
				<path fill="#D44430" d="M149.979,21.049v-2.176l-2.076,0.677c-3.04,0.986-4.69,4.241-3.697,7.271
					C147.395,26.821,149.979,24.242,149.979,21.049z"/>
				<path fill="#308044" d="M140.49,19.563l-2.049-0.654v2.14c0,3.192,2.578,5.771,5.765,5.771
					C145.173,23.784,143.511,20.545,140.49,19.563z"/>
				<path fill="#095E80" d="M136.967,30.56c3.04,0.979,6.268-0.702,7.238-3.739c-2.57-1.865-6.181-1.287-8.042,1.297l-1.287,1.779
					L136.967,30.56z"/>
				<path fill="#80267B" d="M142.953,34.892l1.28,1.76l1.277-1.771c1.868-2.588,1.293-6.192-1.305-8.061
					C141.645,28.696,141.061,32.315,142.953,34.892z"/>
				<path fill="#951C3F" d="M146.317,29.702c-0.363-1.123-1.082-2.137-2.111-2.881C144.61,28.026,145.352,29.017,146.317,29.702z"/>
			</g>
		</g>
		<g>
			<path d="M0,59.75V27.067h21.717v5.951H5.701v8.915h12.752v5.715H5.701V59.75H0z"/>
		</g>
		<g>
			<path d="M28.714,36.242v12.072c0,3.511,1.774,6.163,5.137,6.163c3.238,0,5.445-2.94,5.445-6.456V36.242h5.225v23.098h-4.708
				l-0.344-3.118c-2.208,2.336-4.231,3.462-7.21,3.462c-5.096,0-8.807-4.161-8.807-11.319V36.242H28.714z"/>
			<path d="M65.286,59.298V47.238c0-3.504-1.771-6.184-5.142-6.184c-3.236,0-5.439,2.953-5.439,6.457v11.787h-5.222V36.19h4.699
				l0.349,3.149c2.159-2.295,4.317-3.464,7-3.464c5.002,0,9.016,4.058,9.016,11.321v12.102H65.286z"/>
			<path d="M80.643,26.616V45.5l7.173-9.259h6.302v0.335l-8.667,10.508l9.889,11.789v0.425h-6.356l-8.34-10.427v10.427h-5.255
				V26.616H80.643z"/>
			<path d="M113.967,36.242h5.063v23.057h-4.961l-0.271-3.366c-1.189,2.708-4.515,4.027-6.903,4.067
				c-6.302,0.041-10.968-4.162-10.968-12.254c0-7.941,4.896-12.104,11.087-12.062c2.858,0,5.595,1.441,6.784,3.736L113.967,36.242z
				 M101.187,47.746c0,4.396,2.816,7.018,6.306,7.018c8.295,0,8.295-13.983,0-13.983C104.003,40.78,101.187,43.349,101.187,47.746z"
				/>
		</g>
	</g>
</g>
<g id="friyta" display="none">
	<path display="inline" fill="#CBCBCD" d="M229.236,39.437h7.634v34.836h-7.503l-0.392-5.088c-1.827,4.1-6.851,6.078-10.439,6.148
		c-9.526,0.07-16.572-6.289-16.572-18.514c0-12.014,7.372-18.303,16.768-18.23c4.307,0,8.417,2.189,10.244,5.652L229.236,39.437z
		 M209.923,56.82c0,6.643,4.241,10.6,9.525,10.6c12.527,0,12.527-21.129,0-21.129C214.165,46.291,209.923,50.177,209.923,56.82z"/>
	<path display="inline" fill="#CBCBCD" d="M58.592,75.122h7.634v34.836h-7.503l-0.392-5.088c-1.827,4.1-6.851,6.078-10.439,6.148
		c-9.526,0.07-16.572-6.289-16.572-18.514c0-12.014,7.372-18.303,16.768-18.23c4.307,0,8.417,2.189,10.244,5.652L58.592,75.122z
		 M39.28,92.504c0,6.643,4.241,10.6,9.525,10.6c12.527,0,12.527-21.129,0-21.129C43.521,81.975,39.28,85.862,39.28,92.504z"/>
	<path display="inline" fill="#CBCBCD" d="M-51.099,33.474h7.634V68.31h-7.503l-0.392-5.088c-1.827,4.1-6.851,6.078-10.439,6.148
		c-9.526,0.07-16.572-6.289-16.572-18.514c0-12.014,7.372-18.303,16.768-18.23c4.307,0,8.417,2.189,10.244,5.652L-51.099,33.474z
		 M-70.412,50.857c0,6.643,4.241,10.6,9.525,10.6c12.527,0,12.527-21.129,0-21.129C-66.17,40.328-70.412,44.214-70.412,50.857z"/>
	<path display="inline" fill="#CBCBCD" d="M183.876-51.23h7.633v34.836h-7.502l-0.393-5.088c-1.826,4.1-6.85,6.078-10.439,6.148
		c-9.525,0.07-16.572-6.289-16.572-18.514c0-12.014,7.373-18.303,16.768-18.23c4.307,0,8.418,2.189,10.244,5.652L183.876-51.23z
		 M164.564-33.848c0,6.643,4.24,10.6,9.525,10.6c12.527,0,12.527-21.129,0-21.129C168.804-44.377,164.564-40.49,164.564-33.848z"/>
</g>
</svg>
