<svg xmlns="http://www.w3.org/2000/svg" width="170" height="60" viewBox="0 0 170 60"><path fill="#FFCB00" d="M149.98 21.05a5.77 5.77 0 0 1-5.774 5.77 5.763 5.763 0 0 1-5.765-5.77V5.77a5.77 5.77 0 0 1 11.538 0v15.28z"/><path fill="#F08019" d="M151.478 30.524c-3.018.98-6.29-.672-7.272-3.703a5.754 5.754 0 0 1 3.697-7.27l14.527-4.744c3.023-.988 6.29.672 7.283 3.696a5.768 5.768 0 0 1-3.7 7.282l-14.535 4.74z"/><path fill="#E765A2" d="M142.953 34.892c-1.892-2.577-1.308-6.196 1.253-8.07a5.785 5.785 0 0 1 8.076 1.26l8.997 12.338c1.87 2.576 1.312 6.194-1.265 8.07-2.57 1.876-6.188 1.31-8.054-1.258l-9.007-12.34z"/><path fill="#00A0D4" d="M136.164 28.118a5.754 5.754 0 0 1 8.042-1.297 5.762 5.762 0 0 1 1.305 8.062l-8.942 12.385c-1.86 2.577-5.477 3.164-8.05 1.296-2.594-1.857-3.16-5.464-1.29-8.043l8.936-12.402z"/><path fill="#69C888" d="M140.49 19.563a5.78 5.78 0 0 1 3.716 7.258c-.97 3.038-4.198 4.72-7.238 3.74l-14.55-4.655c-3.04-.988-4.72-4.23-3.746-7.27.965-3.034 4.237-4.705 7.25-3.73l14.568 4.658z"/><g><path fill="#951C3F" d="M152.282 28.08a5.785 5.785 0 0 0-8.076-1.26c.983 3.032 4.255 4.683 7.272 3.704l2.088-.68-1.284-1.763z"/><path fill="#D44430" d="M149.98 21.05v-2.177l-2.077.677a5.753 5.753 0 0 0-3.697 7.27 5.77 5.77 0 0 0 5.773-5.77z"/><path fill="#308044" d="M140.49 19.563l-2.05-.654v2.14a5.763 5.763 0 0 0 5.766 5.77 5.78 5.78 0 0 0-3.716-7.257z"/><path fill="#095E80" d="M136.967 30.56c3.04.98 6.268-.702 7.238-3.74a5.754 5.754 0 0 0-8.042 1.298l-1.287 1.78 2.09.662z"/><path fill="#80267B" d="M142.953 34.892l1.28 1.76 1.277-1.77a5.762 5.762 0 0 0-1.305-8.062c-2.56 1.876-3.144 5.495-1.252 8.072z"/><path fill="#951C3F" d="M146.317 29.702a5.727 5.727 0 0 0-2.11-2.88 5.737 5.737 0 0 0 2.11 2.88z"/></g><g><path d="M0 59.75V27.067h21.717v5.95H5.7v8.916h12.753v5.715H5.7V59.75H0z"/></g><g><path d="M28.714 36.242v12.072c0 3.51 1.774 6.163 5.137 6.163 3.24 0 5.446-2.94 5.446-6.456V36.243h5.225V59.34h-4.707l-.344-3.118c-2.21 2.336-4.232 3.462-7.21 3.462-5.097 0-8.808-4.16-8.808-11.32V36.243h5.262zM65.286 59.298v-12.06c0-3.504-1.77-6.184-5.142-6.184-3.236 0-5.44 2.953-5.44 6.457V59.3h-5.22V36.19h4.698l.35 3.15c2.158-2.296 4.316-3.465 7-3.465 5 0 9.015 4.058 9.015 11.32V59.3h-5.26zM80.643 26.616V45.5l7.173-9.26h6.302v.336L85.45 47.084l9.89 11.79v.424h-6.356l-8.34-10.427V59.3H75.39V26.616h5.253zM113.967 36.242h5.063V59.3h-4.96l-.272-3.367c-1.19 2.708-4.515 4.027-6.903 4.067-6.302.04-10.968-4.162-10.968-12.254 0-7.94 4.896-12.104 11.087-12.062 2.858 0 5.595 1.44 6.784 3.736l.17-3.178zm-12.78 11.504c0 4.396 2.816 7.018 6.306 7.018 8.295 0 8.295-13.983 0-13.983-3.49 0-6.306 2.57-6.306 6.966z"/></g></svg>